<?xml version="1.0" encoding="UTF-8"?>
<svg id="Capa_1" data-name="Capa 1" xmlns="http://www.w3.org/2000/svg" viewBox="200 275 1100 250">
  <defs>
    <style>
      .cls-1 {
        fill: #006cff;
      }

      .cls-2 {
        fill: #fff;
      }

      .cls-3 {
        fill: #000430;
      }
    </style>
  </defs>
  <!-- <rect class="cls-2" x="-50.47" y="-28.34" width="1600.95" height="856.69"/> -->
  <g>
    <g>
      <path class="cls-3" d="M510.88,347.74h45.95c34.09,0,57.36,21.02,57.36,52.55s-23.27,52.55-57.36,52.55h-45.95v-105.11ZM555.93,436.33c23.42,0,38.59-14.26,38.59-36.04s-15.17-36.04-38.59-36.04h-25.53v72.07h25.53Z"/>
      <path class="cls-3" d="M675.63,371.77v17.87c-1.65-.3-3-.45-4.35-.45-14.26,0-23.27,8.41-23.27,24.78v38.89h-18.77v-80.18h17.87v11.71c5.41-8.41,15.17-12.61,28.53-12.61Z"/>
      <path class="cls-3" d="M760.98,418.76h-62.91c2.25,11.71,12.01,19.22,25.98,19.22,9.01,0,16.07-2.85,21.77-8.71l10.06,11.56c-7.21,8.56-18.47,13.06-32.28,13.06-26.88,0-44.3-17.27-44.3-41.14s17.57-40.99,41.44-40.99,40.54,16.37,40.54,41.44c0,1.5-.15,3.75-.3,5.56ZM697.91,406.3h45.5c-1.5-11.56-10.36-19.52-22.67-19.52s-21.02,7.81-22.82,19.52Z"/>
      <path class="cls-3" d="M840.93,405.85v47h-17.72v-9.76c-4.5,6.91-13.21,10.81-25.23,10.81-18.32,0-29.88-10.06-29.88-24.02s9.01-23.87,33.33-23.87h20.72v-1.2c0-10.96-6.61-17.42-19.97-17.42-9.01,0-18.32,3-24.33,7.96l-7.36-13.66c8.56-6.61,21.02-9.91,33.94-9.91,23.12,0,36.49,10.96,36.49,34.09ZM822.16,427.77v-9.31h-19.37c-12.76,0-16.22,4.8-16.22,10.66,0,6.76,5.71,11.11,15.32,11.11s17.12-4.2,20.27-12.46Z"/>
      <path class="cls-3" d="M992.8,406.9v45.95h-18.77v-43.54c0-14.26-6.61-21.17-18.02-21.17-12.31,0-20.87,8.11-20.87,24.02v40.69h-18.77v-43.54c0-14.26-6.61-21.17-18.02-21.17-12.46,0-20.87,8.11-20.87,24.02v40.69h-18.77v-80.18h17.87v10.21c6.01-7.21,15.32-11.11,26.28-11.11,11.71,0,21.47,4.35,27.03,13.36,6.46-8.26,17.27-13.36,30.03-13.36,19.37,0,32.88,10.96,32.88,35.14Z"/>
      <path class="cls-3" d="M1084.03,398.64h22.22v42.64c-11.56,8.71-27.48,13.36-42.49,13.36-33.03,0-57.36-22.67-57.36-54.36s24.32-54.36,57.81-54.36c18.47,0,33.78,6.31,43.99,18.17l-15.62,14.41c-7.66-8.11-16.52-11.86-27.18-11.86-20.42,0-34.39,13.66-34.39,33.63s13.96,33.63,34.09,33.63c6.61,0,12.76-1.2,18.92-4.5v-30.78Z"/>
      <path class="cls-3" d="M1124.74,347.74h24.32v105.11h-24.32v-105.11Z"/>
      <path class="cls-3" d="M1162.61,442.49l8.26-18.32c8.86,6.46,22.07,10.96,34.69,10.96,14.41,0,20.27-4.8,20.27-11.26,0-19.67-61.11-6.16-61.11-45.2,0-17.87,14.41-32.73,44.3-32.73,13.21,0,26.73,3.15,36.49,9.31l-7.51,18.47c-9.76-5.56-19.82-8.26-29.13-8.26-14.41,0-19.97,5.41-19.97,12.01,0,19.37,61.11,6.01,61.11,44.6,0,17.57-14.56,32.58-44.6,32.58-16.67,0-33.48-4.95-42.79-12.16Z"/>
    </g>
    <g>
      <g>
        <path class="cls-1" d="M447.4,364.12c-1.67-7.26-4.21-14.16-8.33-20.38-5.66-8.53-12.31-16.17-20.21-22.72-9.31-7.71-19.91-13.97-31.35-17.88-12.24-4.19-25.66-6.34-37.74-.56-.87.42-1.73.87-2.58,1.34-5.11,2.84-9.87,6.48-13.68,10.95-.82.97-1.6,1.98-2.32,3.02-1.89,2.74-3.35,5.81-4.13,9.05-3.24,13.32,4.8,28.75,15.99,35.82,14.06,8.88,32.06,6.79,48.43,9.64,13.7,2.38,26.74,8.47,37.38,17.47,1.9,1.61,3.77,3.36,4.86,5.59,1.1,2.23,1.35,4.78,2.18,7.12,1.08,3.05,7.6,12.29,11.31,8.02.83-.96,1.53-2.13,1.98-3.32,1.41-3.69,2.09-7.55,2.06-11.51-.06-10.7-1.47-21.23-3.86-31.65Z"/>
        <path class="cls-1" d="M383.75,445.47c.07-8.65,3.58-15.19,11.67-18.76,7.18-3.17,14.68-5.36,22.33-7.06,5.64-1.25,11.33-2.13,17.14-1.91,3.26.12,6.46.61,9.49,1.94,5.73,2.52,8.52,7.32,7.89,13.64-.87,8.76-5.3,15.62-12.24,20.87-3.59,2.71-7.5,3.55-11.78,1.75-1.04-.44-2.13-.74-3.17-1.16-5.51-2.2-11.07-.77-14.79,3.91-.99,1.24-1.8,2.63-2.72,3.94-.61.87-1.21,1.75-1.9,2.56-2.59,3.03-5.8,3.78-9.51,2.48-3.98-1.39-6.66-4.27-8.65-7.85-2.46-4.45-3.64-9.26-3.75-14.34Z"/>
      </g>
      <path class="cls-1" d="M273.25,365.76c4.25-5.9,9.61-11.01,15.43-15.37,4.53-3.51,9.72-6.94,15.43-6.63,1.08.06,2.15.25,3.23.2,2-.09,4-1.11,5.04-2.83s.99-4.11-.32-5.64c-1.15-1.34-2.99-1.84-4.74-2.01-4.46-.43-8.93.83-13.05,2.6-14.11,6.06-25.35,18.5-29.99,33.2-.96,3.05-1.67,6.24-1.59,9.46.02.92,2.46,9.04,2.41,7.93-.11-2.32.91-6.69,1.25-7.69,1.61-4.74,4-9.15,6.91-13.21Z"/>
      <path class="cls-1" d="M324.51,352.17c5.44-5.07,10.63-10.44,15.74-15.64,9.49-9.68,20.19-22.25,22.84-36.15.24-1.27-.54-1.43-1.54-2.23-.43-.35-.99-.51-1.53-.61-2.76-.51-5.61.37-8.09,1.69-3.94,2.09-7.21,5.26-10.2,8.59-5.54,6.17-10.3,12.99-15.05,19.8-4.84,6.94-9.68,13.89-14.52,20.83-.5.72-.97,1.59-1.65,2.16-.43.36-.97.55-1.44.84-1.58,1-3.02,2.35-4.45,3.56-2.93,2.49-5.73,5.19-7.99,8.33-.89,1.24-1.72,2.65-1.64,4.17.02.44.13.88.39,1.23.33.44.57,1.65,1.09,1.81,3.87,1.15,8.09-1.95,11.14-3.95,6.17-4.03,11.41-9.32,16.89-14.42Z"/>
      <path class="cls-1" d="M425.4,330.32c.63-.22,1.2-.59,1.59-1.13.33-.45.52-1.05.34-1.57-.06-.18-.17-.34-.27-.5-1.37-2.04-3.28-3.67-5.32-5.04-3.48-2.34-7.41-4-11.51-4.89-1.03-.22-2.08-.4-3.13-.52s-2.18.01-3.15-.22c-.95-.23-1.99-.94-2.89-1.36-1.05-.49-2.09-.98-3.13-1.48-6.49-3.12-12.88-6.46-19-10.28-2.85-1.77-5.84-3.68-9.19-3.76.08.46-.11,1.28-.58,1.32-1.94,3.25-1.62,6.56-.04,10.01,4.11,8.96,14.55,11.09,23.23,12.66,4.86.88,9.7,1.87,14.51,2.96,2.44.55,4.87,1.13,7.29,1.74,1.21.3,2.42.61,3.63.93.93.24,2.19.91,3.15.91,1.05.28,2.12.55,3.21.49.42-.02.85-.1,1.25-.24Z"/>
      <path class="cls-1" d="M370.63,487.44c-1.09-4.42-4.18-8.28-6.66-12.13-4.84-7.53-7.63-16.27-8.83-25.15-.72-5.35-.89-10.77-.67-16.16.2-4.97,1.15-9.92.55-14.89-.78-6.44-3.62-12.59-7.98-17.26-3.23-3.47-7.26-6.16-11.84-7.43-5.78-1.6-11.91-.72-17.45,1.37-.28.1-.55.21-.82.32-1.53.63-4.44,8.41-4.67,10.06-.01.1-.03.2-.04.3-.68,4.97,9.86,5.02,11.09,9.88,1.22,4.84,2.99,9.31,3.82,14.31,1.69,10.12,1.87,20.44,3.71,30.53,1.56,8.58,4.33,16.93,8.18,24.71.91,1.83,1.82,3.99,3.06,5.6.52.68,1.35,1.16,1.95,1.79.71.75,1.36,1.57,2.07,2.31,1.33,1.39,2.88,2.54,4.49,3.55.23.14.46.28.69.42l-.73,3.35c0,.2.1,1.11.29,1.12,3.06.2,6.31.06,9.34-.45,5.6-.94,9.93-5.44,10.73-11.07.26-1.79.12-3.47-.27-5.08Z"/>
      <g>
        <path class="cls-1" d="M399.2,486.86c-.21-.64-.26-1.37-.12-2.17.29-1.69,1.28-3.15,2.26-4.56,5.27-7.54,10.49-14.99,14.45-23.33,3.66-7.73,6.18-16.32,7.3-24.84.59-4.55,1.14-9.98-1.1-14.12-1.97-3.65-5.67-5.71-9.61-6.55-3.19-.68-6.77-.57-10.11-.91-3.34-.33-7.04-.52-10.22-1.73-6.68-2.53-13.37-6.35-17.68-12.21-4.39-5.97-6.89-13.24-7.63-20.59-.54-5.36-.17-10.85,1.42-15.99,1.59-5.14,4.44-9.94,8.43-13.54,2.59-2.34,5.6-4.14,8.63-5.86,5.49-3.12,13.53-.85,18.67,1.92,4.98,2.67,9.2,6.56,13.03,10.73,15.68,17.1,25.29,40.14,24.58,63.38-.4,12.91-3.88,25.6-9.09,37.41-1.18,2.68-2.36,5.46-3.94,7.92-1.37,2.13-1.53,5.2-2.43,7.61-1.7,4.5-4.25,8.65-7.35,12.32-1.93,2.29-4.1,4.42-6.67,5.96-2.57,1.54-5.57,2.45-8.55,2.2-2.02-.17-3.69-1.29-4.25-3.04Z"/>
        <path class="cls-3" d="M346.98,504.19c-39.74-2.69-76.23-30.14-90.37-67.45-14.39-37.97-4.73-81.48,23.61-110.21,10.99-11.14,23.89-19.36,38.6-24.67,8.31-3,17.02-4.84,25.8-5.69,4.3-.56,8.91-.77,13.23-.35,1.51.15,3.17.26,4.28,1.42.93.96,1.23,2.23.96,3.52-.57,2.66-2.01,4.91-3.46,7.14-4.83,7.45-10.66,14.11-16.69,20.57-6.98,7.48-14.09,14.85-21.25,22.17-4.88,4.99-9.9,9.83-14.93,14.67-1.53,1.47-3.24,2.75-4.95,4.01-1.25.92-2.7,1.41-4.29,1.35-1.97-.07-3.38-1.16-3.98-3.04-.51-1.61-.33-3.2.31-4.69.63-1.46,1.37-2.9,2.27-4.2,2.99-4.32,6.11-8.55,9.1-12.87.78-1.13,1.49-2.38,1.91-3.69.56-1.74-.05-3.19-1.78-3.84-1.29-.48-2.72-.52-4.08-.29-3.61.62-7.25,2.73-10.18,4.86-8.72,6.34-15.73,14.3-20.76,23.87-3.38,6.43-5.51,13.3-5.27,20.67.07,2.23.49,4.52,1.18,6.65,1.61,4.99,5.14,8.12,10.15,9.55,9.19,2.63,19.05.44,27.9-2.46,9.01-2.95,17.49-8.5,27.28-6.57,12.68,2.5,19.74,14.25,19.7,26.63-.01,4.52-.75,9-1.05,13.51-.96,14.14,2.41,28.55,9.54,40.79,3.04,5.22,8.18,11,7.54,17.36-.51,5.05-3.01,9.32-8.11,10.77-2.28.65-4.68.71-7.05.69-1.72-.02-3.45-.09-5.17-.2Z"/>
        <path class="cls-3" d="M400.26,488.37c-.32-.41-.55-.88-.63-1.4-.26-1.7.97-3.35,1.93-4.64,2.68-3.59,5.5-7.12,7.97-10.85,8.79-13.28,15.2-28.75,16.05-44.87.08-1.46.01-2.77-.17-4.2-.27-2.09-.75-4.22-1.51-6.17-1.75-4.46-5.27-7.01-9.89-7.71-3.19-.48-6.47-.42-9.71-.54-3.32-.12-6.61-.35-9.81-1.36-6.03-1.88-10.83-5.57-14.89-10.28-8.99-10.45-12.09-22.64-9.79-36.12,1.67-9.76,7.78-16.24,16.48-20.43,5.87-2.82,12.14-4.16,18.58-4.86,4.97-.53,9.92-.62,14.85.38,5.47,1.11,10.49,3.24,15.01,6.55,7.7,5.64,13.09,13.06,16.94,21.75,3.07,6.94,4.66,14.27,5.88,21.7,1.56,9.46,1.62,18.96.41,28.46-1.82,14.24-6.36,27.58-13.6,39.96-3.85,6.59-8.45,12.72-13.66,18.28-5.13,5.47-10.95,11.01-17.48,14.75-2.25,1.29-4.67,2.33-7.21,2.88-1.27.27-2.61.4-3.84,0-.74-.24-1.43-.69-1.9-1.3Z"/>
        <path class="cls-3" d="M427.52,328.67c-.22.24-.52.41-.83.5-.59.16-1.23.07-1.83-.06-1.59-.33-3.1-.98-4.69-1.37-7.01-1.73-14.08-3.19-21.13-4.78-5.17-1.17-10.32-2.44-15.28-4.33-3.43-1.31-6.7-2.89-9.6-5.17-2.67-2.09-4.77-4.6-5.5-8.06-.61-2.87.32-5.22,2.23-7.31.75-.82,1.64-.8,2.56-.61,2.59.55,5.2,1.05,7.75,1.74,3.23.87,6.43,1.89,9.57,3.06,7.08,2.64,13.87,6.05,20.2,10.19,3.17,2.07,6.23,4.32,9.16,6.72,1.48,1.22,2.93,2.47,4.35,3.77,1.28,1.17,2.68,2.48,3.26,4.17.09.25.16.51.14.77-.02.29-.15.56-.35.77Z"/>
      </g>
    </g>
  </g>
</svg>