<?xml version="1.0" encoding="UTF-8"?>
<svg id="Capa_1" data-name="Capa 1" xmlns="http://www.w3.org/2000/svg" viewBox="0 0 1000 1000">
  <defs>
    <style>
      .cls-1 {
        fill: #006cff;
      }

      .cls-2 {
        fill: #15a5ff;
      }

      .cls-3 {
        fill: #fff;
      }
    </style>
  </defs>
  <g>
    <path class="cls-1" d="M652.73,410.85c.04,6.24-1.04,12.33-3.25,18.15-.71,1.88-1.81,3.72-3.12,5.23-5.86,6.73-16.13-7.84-17.84-12.64-1.31-3.7-1.71-7.71-3.44-11.23-1.73-3.53-4.67-6.29-7.67-8.82-16.77-14.18-37.34-23.79-58.94-27.55-25.81-4.48-54.19-1.19-76.36-15.2-17.64-11.15-30.32-35.47-25.22-56.48,1.24-5.12,3.54-9.95,6.52-14.27,1.14-1.65,2.36-3.24,3.66-4.77,6-7.05,13.5-12.79,21.56-17.27,1.34-.74,2.69-1.45,4.07-2.11,19.04-9.12,40.21-5.73,59.51.88,18.04,6.18,34.75,16.04,49.43,28.2,12.46,10.32,22.95,22.38,31.87,35.83,6.5,9.8,10.5,20.68,13.13,32.13,3.77,16.43,5.99,33.04,6.09,49.91ZM545.65,525.47c3.13,5.65,7.37,10.18,13.64,12.38,5.85,2.05,10.91.87,15-3.91,1.08-1.27,2.04-2.66,3-4.03,1.44-2.06,2.72-4.25,4.28-6.21,5.86-7.37,14.63-9.63,23.32-6.16,1.65.66,3.37,1.14,5.01,1.83,6.76,2.84,12.92,1.51,18.58-2.76,10.95-8.28,17.93-19.09,19.3-32.9.99-9.96-3.4-17.54-12.43-21.5-4.77-2.09-9.81-2.87-14.96-3.06-9.15-.35-18.13,1.04-27.03,3.01-12.06,2.68-23.89,6.14-35.21,11.13-12.75,5.62-18.29,15.93-18.4,29.57.17,8.01,2.03,15.6,5.91,22.61Z"/>
    <path class="cls-2" d="M372.06,363.51c6.69-9.3,15.15-17.36,24.32-24.24,7.14-5.54,15.32-10.94,24.33-10.46,1.7.09,3.39.39,5.09.31,3.16-.15,6.3-1.76,7.95-4.46,1.65-2.71,1.56-6.49-.5-8.89-1.81-2.11-4.71-2.9-7.47-3.16-7.04-.68-14.08,1.3-20.58,4.09-22.24,9.55-39.97,29.18-47.29,52.34-1.52,4.81-2.64,9.84-2.51,14.92.04,1.46,3.88,14.26,3.8,12.5-.17-3.66,1.43-10.55,1.97-12.12,2.54-7.47,6.3-14.43,10.89-20.83Z"/>
    <path class="cls-2" d="M452.88,342.08c8.58-7.99,16.76-16.45,24.82-24.67,14.96-15.26,31.83-35.08,36.01-57,.38-2-.85-2.25-2.43-3.52-.68-.55-1.55-.8-2.41-.96-4.35-.8-8.84.58-12.75,2.66-6.22,3.3-11.37,8.3-16.08,13.54-8.74,9.72-16.24,20.49-23.72,31.22-7.63,10.95-15.26,21.9-22.89,32.84-.79,1.14-1.52,2.51-2.61,3.4-.68.56-1.53.86-2.26,1.33-2.49,1.58-4.77,3.71-7.01,5.61-4.63,3.93-9.03,8.19-12.59,13.13-1.4,1.95-2.72,4.17-2.59,6.58.04.69.21,1.39.62,1.94.52.69.9,2.61,1.72,2.85,6.1,1.81,12.76-3.08,17.57-6.22,9.72-6.35,17.99-14.7,26.62-22.74Z"/>
    <path class="cls-2" d="M611.95,307.63c.99-.35,1.89-.93,2.51-1.78.52-.71.83-1.65.53-2.48-.1-.28-.26-.54-.43-.79-2.16-3.22-5.17-5.79-8.39-7.95-5.49-3.7-11.68-6.31-18.14-7.71-1.63-.35-3.28-.63-4.93-.82-1.58-.19-3.43.02-4.96-.35s-3.14-1.48-4.56-2.14c-1.65-.77-3.3-1.55-4.94-2.34-10.24-4.92-20.32-10.19-29.96-16.2-4.49-2.8-9.21-5.8-14.49-5.93.12.72-.18,2.02-.91,2.08-3.06,5.13-2.55,10.35-.06,15.78,6.48,14.12,22.94,17.48,36.63,19.96,7.66,1.39,15.29,2.94,22.88,4.66,3.84.87,7.67,1.78,11.5,2.74,1.91.48,3.82.96,5.72,1.46,1.47.38,3.46,1.44,4.96,1.44,1.65.44,3.35.86,5.06.77.67-.04,1.34-.16,1.97-.38Z"/>
    <path class="cls-2" d="M525.6,555.37c-1.72-6.98-6.59-13.06-10.5-19.13-7.63-11.87-12.02-25.65-13.92-39.65-1.14-8.44-1.4-16.97-1.06-25.48.31-7.84,1.82-15.64.87-23.47-1.23-10.15-5.71-19.85-12.58-27.22-5.09-5.47-11.45-9.72-18.67-11.72-9.12-2.53-18.77-1.14-27.52,2.16-.43.16-.87.33-1.29.51-2.41.99-6.99,13.27-7.37,15.87-.02.16-.04.31-.07.47-1.07,7.84,15.55,7.92,17.48,15.58,1.93,7.64,4.71,14.68,6.03,22.56,2.66,15.95,2.94,32.22,5.84,48.14,2.46,13.53,6.82,26.7,12.9,38.96,1.43,2.89,2.87,6.29,4.83,8.83.82,1.07,2.13,1.83,3.07,2.82,1.12,1.18,2.14,2.47,3.27,3.65,2.09,2.19,4.54,4,7.09,5.6.36.23.72.44,1.09.66l-1.15,5.28c0,.31.16,1.74.46,1.76,4.82.32,9.95.09,14.72-.71,8.82-1.48,15.65-8.58,16.93-17.46.4-2.82.2-5.47-.43-8Z"/>
    <g>
      <path class="cls-2" d="M570.64,554.45c-.32-1.01-.41-2.16-.19-3.42.46-2.66,2.02-4.97,3.57-7.18,8.31-11.89,16.55-23.63,22.78-36.79,5.77-12.19,9.75-25.73,11.5-39.17.94-7.18,1.79-15.73-1.73-22.27-3.11-5.76-8.94-9-15.15-10.33-5.02-1.08-10.68-.91-15.94-1.43-5.27-.52-11.1-.83-16.12-2.72-10.54-3.99-21.08-10.01-27.87-19.25s-10.87-20.87-12.03-32.47c-.85-8.45-.27-17.1,2.24-25.21,2.51-8.11,7-15.67,13.29-21.35,4.08-3.69,8.83-6.53,13.61-9.24,8.65-4.91,21.33-1.34,29.44,3.02,7.84,4.22,14.51,10.35,20.54,16.92,24.72,26.97,39.87,63.29,38.75,99.93-.62,20.36-6.12,40.37-14.33,58.99-1.86,4.22-3.72,8.61-6.22,12.49-2.16,3.36-2.41,8.2-3.84,12-2.67,7.09-6.7,13.64-11.59,19.42-3.05,3.61-6.47,6.97-10.52,9.39-4.05,2.42-8.78,3.87-13.48,3.47-3.18-.27-5.82-2.04-6.7-4.8Z"/>
      <path class="cls-3" d="M488.31,581.79c-62.67-4.24-120.2-47.52-142.5-106.35-22.69-59.88-7.46-128.48,37.23-173.77,17.32-17.56,37.67-30.53,60.86-38.9,13.1-4.73,26.84-7.63,40.68-8.97,6.78-.88,14.04-1.21,20.85-.55,2.38.23,4.99.42,6.76,2.23,1.46,1.51,1.95,3.52,1.51,5.54-.89,4.19-3.17,7.74-5.45,11.26-7.62,11.75-16.81,22.25-26.32,32.44-11.01,11.8-22.22,23.42-33.5,34.96-7.69,7.86-15.61,15.51-23.54,23.13-2.4,2.31-5.11,4.34-7.8,6.32-1.97,1.45-4.26,2.22-6.77,2.13-3.1-.12-5.33-1.83-6.27-4.79-.81-2.53-.52-5.05.49-7.39.99-2.3,2.15-4.57,3.57-6.62,4.71-6.81,9.63-13.48,14.35-20.29,1.24-1.78,2.35-3.76,3.01-5.81.88-2.75-.07-5.03-2.81-6.05-2.04-.76-4.29-.82-6.43-.45-5.69.97-11.43,4.3-16.04,7.66-13.75,10-24.8,22.55-32.73,37.64-5.32,10.13-8.69,20.97-8.31,32.6.12,3.52.77,7.13,1.86,10.48,2.54,7.87,8.11,12.81,16,15.06,14.49,4.14,30.04.69,43.99-3.88,14.21-4.65,27.58-13.4,43.02-10.36,19.99,3.94,31.13,22.47,31.07,41.99-.02,7.13-1.18,14.2-1.66,21.31-1.51,22.3,3.8,45.02,15.04,64.32,4.8,8.23,12.9,17.34,11.89,27.38-.8,7.96-4.75,14.69-12.79,16.98-3.59,1.02-7.38,1.13-11.11,1.09-2.72-.03-5.44-.14-8.15-.32Z"/>
      <path class="cls-3" d="M572.31,556.84c-.51-.64-.87-1.39-.99-2.21-.41-2.69,1.53-5.28,3.05-7.31,4.23-5.66,8.67-11.23,12.57-17.11,13.87-20.93,23.97-45.33,25.31-70.75.12-2.3.02-4.36-.27-6.63-.42-3.3-1.18-6.65-2.39-9.73-2.77-7.04-8.32-11.05-15.59-12.15-5.03-.76-10.2-.66-15.31-.85-5.23-.19-10.42-.56-15.47-2.14-9.5-2.97-17.08-8.78-23.47-16.2-14.18-16.47-19.07-35.7-15.43-56.95,2.63-15.38,12.26-25.61,25.98-32.21,9.26-4.45,19.14-6.56,29.29-7.66,7.84-.84,15.64-.98,23.42.6,8.63,1.75,16.54,5.12,23.66,10.33,12.14,8.89,20.64,20.6,26.7,34.3,4.84,10.95,7.35,22.51,9.28,34.22,2.45,14.91,2.56,29.9.64,44.88-2.87,22.46-10.03,43.48-21.45,63.01-6.07,10.38-13.32,20.06-21.54,28.82-8.08,8.62-17.26,17.36-27.56,23.25-3.55,2.03-7.36,3.67-11.37,4.54-2,.43-4.11.62-6.06,0-1.16-.37-2.25-1.09-3-2.04Z"/>
      <path class="cls-3" d="M615.31,305.03c-.35.37-.82.65-1.31.79-.94.26-1.93.1-2.88-.09-2.51-.51-4.89-1.54-7.39-2.16-11.05-2.72-22.21-5.02-33.31-7.53-8.15-1.84-16.26-3.84-24.1-6.83-5.4-2.06-10.57-4.56-15.14-8.15-4.21-3.3-7.52-7.25-8.68-12.7-.96-4.52.51-8.22,3.51-11.53,1.18-1.3,2.59-1.27,4.04-.96,4.09.86,8.19,1.66,12.22,2.74,5.1,1.37,10.13,2.98,15.08,4.82,11.16,4.16,21.86,9.55,31.85,16.06,5,3.27,9.82,6.81,14.44,10.6,2.34,1.92,4.62,3.9,6.85,5.94,2.02,1.85,4.22,3.91,5.15,6.57.14.39.25.8.22,1.21-.03.46-.24.88-.56,1.21Z"/>
    </g>
  </g>
  <g>
    <path class="cls-3" d="M150,647.07h43.52c32.28,0,54.32,19.67,54.32,49.17s-22.04,49.17-54.32,49.17h-43.52v-98.35ZM192.66,729.97c22.18,0,36.55-13.35,36.55-33.72s-14.36-33.72-36.55-33.72h-24.18v67.44h24.18Z"/>
    <path class="cls-3" d="M306.03,669.55v16.72c-1.56-.28-2.84-.42-4.12-.42-13.51,0-22.04,7.87-22.04,23.18v36.39h-17.78v-75.02h16.92v10.96c5.12-7.87,14.36-11.8,27.02-11.8Z"/>
    <path class="cls-3" d="M386.86,713.53h-59.58c2.13,10.96,11.38,17.98,24.6,17.98,8.53,0,15.22-2.67,20.62-8.15l9.53,10.82c-6.83,8.01-17.49,12.22-30.57,12.22-25.45,0-41.95-16.16-41.95-38.5s16.64-38.35,39.25-38.35,38.4,15.31,38.4,38.78c0,1.4-.14,3.51-.28,5.2ZM327.13,701.87h43.09c-1.42-10.82-9.81-18.26-21.47-18.26s-19.91,7.31-21.62,18.26Z"/>
    <path class="cls-3" d="M462.58,701.45v43.97h-16.78v-9.13c-4.27,6.46-12.51,10.12-23.89,10.12-17.35,0-28.3-9.41-28.3-22.48s8.53-22.34,31.57-22.34h19.62v-1.12c0-10.26-6.26-16.3-18.91-16.3-8.53,0-17.35,2.81-23.04,7.45l-6.97-12.78c8.11-6.18,19.91-9.27,32.14-9.27,21.9,0,34.56,10.26,34.56,31.89ZM444.8,721.96v-8.71h-18.34c-12.09,0-15.36,4.5-15.36,9.97,0,6.32,5.4,10.4,14.5,10.4s16.21-3.93,19.2-11.66Z"/>
    <path class="cls-3" d="M606.41,702.43v42.99h-17.78v-40.74c0-13.35-6.26-19.81-17.06-19.81-11.66,0-19.77,7.59-19.77,22.48v38.07h-17.78v-40.74c0-13.35-6.26-19.81-17.06-19.81-11.8,0-19.77,7.59-19.77,22.48v38.07h-17.78v-75.02h16.92v9.55c5.69-6.74,14.51-10.4,24.89-10.4,11.09,0,20.34,4.07,25.6,12.5,6.12-7.73,16.35-12.5,28.44-12.5,18.34,0,31.14,10.26,31.14,32.88Z"/>
    <path class="cls-3" d="M692.81,694.7h21.05v39.9c-10.95,8.15-26.02,12.5-40.24,12.5-31.29,0-54.32-21.21-54.32-50.86s23.04-50.86,54.75-50.86c17.49,0,32,5.9,41.67,17l-14.79,13.49c-7.25-7.59-15.64-11.1-25.74-11.1-19.34,0-32.57,12.79-32.57,31.47s13.23,31.47,32.28,31.47c6.26,0,12.09-1.12,17.92-4.21v-28.8Z"/>
    <path class="cls-3" d="M731.37,647.07h23.04v98.35h-23.04v-98.35Z"/>
    <path class="cls-3" d="M767.24,735.73l7.82-17.14c8.39,6.04,20.9,10.26,32.85,10.26,13.65,0,19.2-4.5,19.2-10.54,0-18.4-57.88-5.76-57.88-42.29,0-16.72,13.65-30.63,41.95-30.63,12.51,0,25.31,2.95,34.56,8.71l-7.11,17.28c-9.24-5.2-18.77-7.73-27.59-7.73-13.65,0-18.91,5.06-18.91,11.24,0,18.12,57.88,5.62,57.88,41.73,0,16.44-13.79,30.49-42.24,30.49-15.79,0-31.71-4.64-40.53-11.38Z"/>
  </g>
</svg>