<?xml version="1.0" encoding="UTF-8"?>
<svg id="Capa_1" data-name="Capa 1" xmlns="http://www.w3.org/2000/svg" viewBox="0 0 1000 1000">
  <defs>
    <style>
      .cls-1 {
        opacity: .6;
      }

      .cls-1, .cls-2 {
        fill: #00418b;
      }
    </style>
  </defs>
  <g>
    <path class="cls-2" d="M150,647.07h43.52c32.28,0,54.32,19.67,54.32,49.17s-22.04,49.17-54.32,49.17h-43.52v-98.35ZM192.66,729.97c22.18,0,36.55-13.35,36.55-33.72s-14.36-33.72-36.55-33.72h-24.18v67.44h24.18Z"/>
    <path class="cls-2" d="M306.03,669.55v16.72c-1.56-.28-2.84-.42-4.12-.42-13.51,0-22.04,7.87-22.04,23.18v36.39h-17.78v-75.02h16.92v10.96c5.12-7.87,14.36-11.8,27.02-11.8Z"/>
    <path class="cls-2" d="M386.86,713.53h-59.58c2.13,10.96,11.38,17.98,24.6,17.98,8.53,0,15.22-2.67,20.62-8.15l9.53,10.82c-6.83,8.01-17.49,12.22-30.57,12.22-25.45,0-41.95-16.16-41.95-38.5s16.64-38.35,39.25-38.35,38.4,15.31,38.4,38.78c0,1.4-.14,3.51-.28,5.2ZM327.13,701.87h43.09c-1.42-10.82-9.81-18.26-21.47-18.26s-19.91,7.31-21.62,18.26Z"/>
    <path class="cls-2" d="M462.58,701.45v43.97h-16.78v-9.13c-4.27,6.46-12.51,10.12-23.89,10.12-17.35,0-28.3-9.41-28.3-22.48s8.53-22.34,31.57-22.34h19.62v-1.12c0-10.26-6.26-16.3-18.91-16.3-8.53,0-17.35,2.81-23.04,7.45l-6.97-12.78c8.11-6.18,19.91-9.27,32.14-9.27,21.9,0,34.56,10.26,34.56,31.89ZM444.8,721.96v-8.71h-18.34c-12.09,0-15.36,4.5-15.36,9.97,0,6.32,5.4,10.4,14.5,10.4s16.21-3.93,19.2-11.66Z"/>
    <path class="cls-2" d="M606.41,702.43v42.99h-17.78v-40.74c0-13.35-6.26-19.81-17.06-19.81-11.66,0-19.77,7.59-19.77,22.48v38.07h-17.78v-40.74c0-13.35-6.26-19.81-17.06-19.81-11.8,0-19.77,7.59-19.77,22.48v38.07h-17.78v-75.02h16.92v9.55c5.69-6.74,14.51-10.4,24.89-10.4,11.09,0,20.34,4.07,25.6,12.5,6.12-7.73,16.35-12.5,28.44-12.5,18.34,0,31.14,10.26,31.14,32.88Z"/>
    <path class="cls-2" d="M692.81,694.7h21.05v39.9c-10.95,8.15-26.02,12.5-40.24,12.5-31.29,0-54.32-21.21-54.32-50.86s23.04-50.86,54.75-50.86c17.49,0,32,5.9,41.67,17l-14.79,13.49c-7.25-7.59-15.64-11.1-25.74-11.1-19.34,0-32.57,12.79-32.57,31.47s13.23,31.47,32.28,31.47c6.26,0,12.09-1.12,17.92-4.21v-28.8Z"/>
    <path class="cls-2" d="M731.37,647.07h23.04v98.35h-23.04v-98.35Z"/>
    <path class="cls-2" d="M767.24,735.73l7.82-17.14c8.39,6.04,20.9,10.26,32.85,10.26,13.65,0,19.2-4.5,19.2-10.54,0-18.4-57.88-5.76-57.88-42.29,0-16.72,13.65-30.63,41.95-30.63,12.51,0,25.31,2.95,34.56,8.71l-7.11,17.28c-9.24-5.2-18.77-7.73-27.59-7.73-13.65,0-18.91,5.06-18.91,11.24,0,18.12,57.88,5.62,57.88,41.73,0,16.44-13.79,30.49-42.24,30.49-15.79,0-31.71-4.64-40.53-11.38Z"/>
  </g>
  <g>
    <path class="cls-1" d="M531.51,329.22c1.27-1.15,2.73-2.31,4.57-3.64,3.47-2.78,7.45-5.26,11.85-7.38,8.72-4.2,18.51-6.77,30.81-8.09,4.03-.43,7.66-.64,11.09-.64,2.12,0,4.15.1,6.14.26-1.08-.28-2.15-.56-3.23-.83-3.76-.94-7.59-1.85-11.38-2.71-7.48-1.69-15.1-3.25-22.65-4.61-12.89-2.34-32.38-5.87-40.07-22.63-1.62-3.53-2.42-6.86-2.46-10.05-6.45,20.48-22.08,38.3-35.28,51.77l-2.81,2.87c-4.87,4.97-9.86,10.06-14.97,15.06,4.71,8.22,11.3,15.33,18.79,20.06,9.78,6.18,20.77,8.98,32.21,10.58.22-5.79,1.15-11.33,2.77-16.57,2.88-9.3,7.93-17.4,14.62-23.45Z"/>
    <path class="cls-1" d="M603.22,466.99c.91-6.95,1.56-14.16-1.17-19.29-.84.17-1.68.35-2.51.54-12.04,2.68-23.86,6.13-35.16,11.12-12.73,5.62-18.27,15.91-18.37,29.53.17,8,2.02,15.58,5.91,22.58,3.13,5.64,7.36,10.17,13.62,12.36,5.85,2.05,10.9.87,14.98-3.91,1.08-1.27,2.03-2.66,2.99-4.03,1.44-2.06,2.72-4.24,4.28-6.2,1.14-1.43,2.38-2.66,3.71-3.69.22-.44.45-.88.66-1.33,5.56-11.73,9.38-24.77,11.07-37.7Z"/>
    <path class="cls-2" d="M615.49,303.74c-.03.46-.25.87-.56,1.22-.13.13-.27.22-.43.32-.08.06-.14.13-.22.17l-.19.33c-.62.84-1.52,1.43-2.51,1.78-.63.22-1.3.33-1.97.38-.17,0-.33.02-.51.02-1.52,0-3.05-.38-4.54-.79-1.51,0-3.49-1.05-4.97-1.43-1.91-.49-3.81-.98-5.71-1.46-3.81-.95-7.64-1.86-11.48-2.73-7.59-1.71-15.21-3.27-22.84-4.65-13.68-2.48-30.13-5.83-36.59-19.94-2.3-5.03-2.87-9.86-.52-14.62.33-1.11.84-2.16,1.49-3.17v-.03h.02c.11-.17.25-.35.37-.52.43-.6.89-1.21,1.43-1.79.78-.86,1.65-1.13,2.59-1.13.46,0,.95.06,1.44.17,4.08.86,8.18,1.65,12.21,2.73,5.08,1.37,10.11,2.98,15.06,4.83,11.14,4.14,21.83,9.52,31.8,16.03,5,3.27,9.81,6.79,14.43,10.59,2.33,1.92,4.62,3.89,6.84,5.94,2.03,1.84,4.22,3.89,5.14,6.56.14.38.25.79.22,1.21Z"/>
    <path class="cls-2" d="M525.77,562.97c-1.27,8.86-8.1,15.97-16.91,17.45-.6.1-1.21.16-1.83.24-3.13.86-6.41,1.03-9.67,1.03-.38,0-.75,0-1.13-.02-2.71-.03-5.43-.13-8.14-.32-62.58-4.22-120.04-47.45-142.3-106.22-22.67-59.8-7.46-128.3,37.18-173.54,17.29-17.54,37.61-30.49,60.77-38.84,13.08-4.73,26.81-7.64,40.64-8.97,4.32-.56,8.83-.89,13.29-.89,2.54,0,5.06.11,7.54.35,2.36.22,4.98.41,6.75,2.22.84.89,1.35,1.92,1.56,3.05.14.81.13,1.65-.05,2.49-.17.79-.4,1.54-.65,2.29-5.05,20.75-21.03,39.48-35.3,54.04-5.48,5.59-11.02,11.27-16.7,16.86-2.67,2.62-5.35,5.22-8.1,7.78-8.62,8.03-16.87,16.37-26.59,22.7-4.08,2.68-9.51,6.62-14.8,6.62-.92,0-1.84-.13-2.75-.4-.05-.02-.1-.05-.14-.08-2.16-.6-3.73-2.14-4.48-4.49-.81-2.54-.52-5.05.49-7.38.98-2.3,2.14-4.57,3.57-6.62,4.7-6.79,9.62-13.46,14.33-20.26.67-.97,1.29-2,1.84-3.05-1.21-.08-2.41-.24-3.62-.3-.38-.02-.75-.03-1.11-.03-8.56,0-16.35,5.18-23.18,10.48-9.16,6.87-17.6,14.92-24.3,24.21-4.57,6.38-8.33,13.33-10.87,20.8-.52,1.57-2.13,8.45-1.95,12.11,0,.1-.02.14-.03.14,0,.38-.02.76-.02,1.14.13,3.51.78,7.11,1.86,10.46,2.54,7.86,8.1,12.79,15.99,15.05,4.56,1.3,9.22,1.84,13.91,1.84,10.19,0,20.48-2.59,30.02-5.71,6.45-2.11,12.7-5.05,19.07-7.37.29-.32.57-.57.81-.67.43-.17.87-.35,1.3-.51,5.64-2.13,11.65-3.46,17.65-3.46,3.3,0,6.6.41,9.83,1.3,7.22,2,13.56,6.24,18.65,11.7,6.86,7.37,11.33,17.05,12.56,27.19.95,7.81-.56,15.6-.86,23.43-.35,8.49-.08,17.02,1.06,25.45,1.89,13.99,6.27,27.75,13.89,39.61,3.91,6.06,8.78,12.14,10.49,19.1.62,2.54.83,5.19.43,8Z"/>
    <path class="cls-2" d="M662.85,439.01c-2.87,22.43-10.02,43.43-21.41,62.94-6.06,10.37-13.3,20.03-21.51,28.78-7.71,8.22-16.45,16.53-26.18,22.4-1.05.81-2.11,1.57-3.25,2.25-3.6,2.16-7.73,3.54-11.91,3.54-.52,0-1.05-.03-1.56-.08-.06,0-.13-.02-.21-.02-.27-.03-.56-.08-.83-.13-.1-.02-.21-.05-.3-.06-.24-.05-.48-.08-.7-.16-.37-.11-.7-.27-1.03-.44-1.73-.81-3.06-2.17-3.64-3.97-.32-1.02-.41-2.16-.19-3.41.46-2.67,2.02-4.97,3.56-7.18,8.3-11.87,16.53-23.61,22.75-36.75.65-1.35,1.27-2.75,1.86-4.13,4.76-11.06,8.08-23.07,9.64-34.99.87-6.67,1.67-14.51-1.05-20.83-.21-.48-.43-.95-.68-1.41-3.11-5.75-8.92-8.98-15.13-10.32-5.02-1.08-10.67-.9-15.92-1.43-5.27-.52-11.1-.83-16.1-2.71-10.52-3.98-21.07-10-27.84-19.22-6.91-9.41-10.86-20.84-12.02-32.43-.32-3.13-.43-6.29-.33-9.43.17-5.33,1-10.65,2.57-15.75,2.51-8.11,6.98-15.65,13.27-21.32,1.35-1.22,2.79-2.33,4.25-3.38,3.27-2.64,6.97-4.92,11.03-6.87,9.25-4.46,19.13-6.56,29.26-7.65,3.54-.38,7.06-.62,10.59-.62,4.27,0,8.54.35,12.79,1.21,8.62,1.75,16.53,5.11,23.64,10.32,4.02,2.95,7.59,6.22,10.84,9.75,6.6,7.13,11.78,15.37,15.83,24.51,4.84,10.94,7.33,22.48,9.27,34.18,2.44,14.89,2.54,29.86.63,44.81Z"/>
  </g>
</svg>