<?xml version="1.0" encoding="UTF-8"?>
<svg id="Capa_1" data-name="Capa 1" xmlns="http://www.w3.org/2000/svg" viewBox="0 0 1000 1000">
  <defs>
    <style>
      .cls-1 {
        opacity: .6;
      }

      .cls-1, .cls-2 {
        fill: #fff;
      }
    </style>
  </defs>
  <path class="cls-1" d="M557.91,339.28c2.32-2.1,4.98-4.21,8.34-6.64,6.32-5.07,13.6-9.6,21.63-13.46,15.91-7.66,33.78-12.35,56.22-14.76,7.35-.79,13.97-1.18,20.24-1.18,3.87,0,7.57.17,11.2.47-1.97-.5-3.93-1.02-5.9-1.51-6.87-1.72-13.86-3.38-20.76-4.94-13.65-3.09-27.56-5.93-41.33-8.42-23.53-4.26-59.09-10.71-73.12-41.31-2.95-6.44-4.42-12.53-4.48-18.34-11.78,37.38-40.29,69.9-64.39,94.48l-5.13,5.23c-8.89,9.08-17.99,18.36-27.33,27.48,8.6,15,20.62,27.98,34.28,36.61,17.84,11.28,37.9,16.4,58.78,19.31.41-10.56,2.09-20.68,5.05-30.24,5.25-16.96,14.48-31.76,26.69-42.79Z"/>
  <path class="cls-1" d="M688.76,590.71c1.66-12.69,2.85-25.84-2.13-35.2-1.53.32-3.06.64-4.58.98-21.97,4.89-43.54,11.19-64.17,20.29-23.23,10.25-33.34,29.03-33.53,53.9.3,14.61,3.69,28.44,10.78,41.21,5.71,10.29,13.43,18.56,24.85,22.56,10.67,3.74,19.89,1.59,27.33-7.13,1.98-2.32,3.71-4.85,5.46-7.35,2.63-3.75,4.96-7.74,7.8-11.31,2.07-2.6,4.35-4.85,6.78-6.74.4-.81.82-1.6,1.21-2.42,10.14-21.41,17.12-45.2,20.2-68.79Z"/>
  <path class="cls-2" d="M711.17,292.78c-.06.84-.46,1.59-1.01,2.23-.23.23-.49.41-.78.58-.14.12-.26.23-.41.32l-.35.61c-1.13,1.54-2.78,2.61-4.58,3.24-1.16.41-2.37.61-3.59.7-.32,0-.61.03-.93.03-2.78,0-5.56-.7-8.28-1.45-2.75,0-6.37-1.91-9.07-2.61-3.48-.9-6.95-1.8-10.43-2.67-6.95-1.74-13.93-3.39-20.94-4.98-13.85-3.13-27.75-5.97-41.69-8.49-24.97-4.52-54.98-10.63-66.77-36.39-4.2-9.18-5.24-17.99-.96-26.68.61-2.03,1.54-3.94,2.72-5.79v-.06h.03c.2-.32.46-.64.67-.96.78-1.1,1.62-2.2,2.61-3.27,1.42-1.56,3.01-2.06,4.72-2.06.84,0,1.74.12,2.64.32,7.44,1.56,14.92,3.01,22.28,4.98,9.27,2.49,18.45,5.45,27.49,8.81,20.34,7.56,39.83,17.38,58.03,29.26,9.13,5.97,17.9,12.4,26.33,19.32,4.26,3.51,8.43,7.1,12.49,10.83,3.71,3.36,7.71,7.1,9.39,11.96.26.7.46,1.45.41,2.2Z"/>
  <path class="cls-2" d="M547.43,765.85c-2.32,16.16-14.77,29.14-30.85,31.84-1.1.17-2.2.29-3.33.43-5.71,1.56-11.7,1.88-17.64,1.88-.7,0-1.36,0-2.06-.03-4.95-.06-9.91-.23-14.86-.58-114.2-7.71-219.07-86.59-259.68-193.83-41.37-109.13-13.62-234.13,67.85-316.69,31.55-32.01,68.63-55.65,110.89-70.89,23.87-8.63,48.93-13.93,74.16-16.37,7.88-1.01,16.11-1.62,24.25-1.62,4.63,0,9.24.2,13.76.64,4.32.41,9.1.75,12.31,4.06,1.53,1.62,2.46,3.51,2.84,5.56.26,1.48.23,3.01-.09,4.55-.32,1.45-.72,2.81-1.19,4.17-9.21,37.86-38.38,72.05-64.43,98.61-9.99,10.2-20.1,20.57-30.48,30.77-4.87,4.78-9.76,9.53-14.77,14.19-15.73,14.66-30.79,29.87-48.52,41.43-7.45,4.9-17.35,12.08-27,12.08-1.68,0-3.36-.23-5.01-.72-.09-.03-.17-.09-.26-.14-3.94-1.1-6.81-3.91-8.17-8.2-1.48-4.64-.96-9.21.9-13.47,1.8-4.2,3.91-8.34,6.52-12.08,8.57-12.4,17.56-24.57,26.16-36.97,1.22-1.77,2.35-3.65,3.36-5.56-2.2-.14-4.4-.43-6.6-.55-.7-.03-1.36-.06-2.03-.06-15.61,0-29.84,9.44-42.29,19.12-16.72,12.54-32.13,27.23-44.35,44.18-8.34,11.65-15.21,24.33-19.84,37.95-.96,2.87-3.88,15.41-3.56,22.1,0,.17-.03.26-.06.26,0,.7-.03,1.39-.03,2.09.23,6.4,1.42,12.98,3.39,19.09,4.63,14.34,14.77,23.35,29.17,27.46,8.31,2.38,16.83,3.36,25.38,3.36,18.6,0,37.37-4.72,54.78-10.43,11.76-3.85,23.18-9.21,34.79-13.44.52-.58,1.04-1.04,1.48-1.22.78-.32,1.59-.64,2.37-.93,10.28-3.88,21.26-6.32,32.21-6.32,6.03,0,12.05.75,17.93,2.38,13.18,3.65,24.74,11.38,34.04,21.35,12.51,13.44,20.68,31.11,22.92,49.62,1.74,14.25-1.01,28.48-1.56,42.76-.64,15.5-.14,31.06,1.94,46.44,3.45,25.52,11.44,50.64,25.35,72.28,7.13,11.07,16.02,22.16,19.15,34.85,1.13,4.64,1.51,9.47.78,14.6Z"/>
  <path class="cls-2" d="M797.58,539.63c-5.24,40.93-18.28,79.26-39.08,114.86-11.07,18.92-24.28,36.56-39.25,52.52-14.08,15.01-30.01,30.16-47.77,40.88-1.91,1.48-3.85,2.87-5.94,4.11-6.58,3.94-14.11,6.46-21.73,6.46-.96,0-1.91-.06-2.84-.14-.12,0-.23-.03-.38-.03-.49-.06-1.01-.14-1.51-.23-.17-.03-.38-.09-.55-.12-.43-.09-.87-.14-1.27-.29-.67-.2-1.28-.49-1.88-.81-3.16-1.48-5.59-3.97-6.63-7.24-.58-1.85-.75-3.94-.35-6.23.84-4.87,3.68-9.07,6.49-13.09,15.15-21.67,30.16-43.08,41.51-67.06,1.19-2.46,2.32-5.01,3.39-7.53,8.69-20.19,14.75-42.09,17.58-63.85,1.59-12.17,3.04-26.48-1.91-38.01-.38-.87-.78-1.74-1.25-2.58-5.68-10.49-16.28-16.4-27.61-18.83-9.15-1.97-19.47-1.65-29.06-2.61-9.62-.96-20.25-1.51-29.37-4.95-19.21-7.27-38.44-18.25-50.81-35.08-12.6-17.18-19.82-38.04-21.93-59.18-.58-5.71-.78-11.47-.61-17.21.32-9.73,1.83-19.44,4.69-28.74,4.58-14.8,12.75-28.56,24.22-38.91,2.46-2.23,5.1-4.26,7.76-6.17,5.97-4.81,12.72-8.98,20.13-12.54,16.89-8.14,34.91-11.96,53.39-13.96,6.46-.7,12.89-1.13,19.32-1.13,7.79,0,15.59.64,23.35,2.2,15.73,3.19,30.16,9.33,43.14,18.83,7.33,5.39,13.85,11.36,19.79,17.79,12.05,13.01,21.5,28.04,28.88,44.73,8.84,19.96,13.38,41.02,16.92,62.37,4.46,27.17,4.64,54.49,1.16,81.78Z"/>
</svg>