<svg height="41" viewBox="0 0 228 41" width="228" xmlns="http://www.w3.org/2000/svg">
 <g data-name="Group 900">
  <path d="m130 40.999h9v-9l-32-32h-9v9l11 12-11 11v9h9l11-11z" fill="#fdb913" data-name="Path 512"/>
  <g data-name="Group 899">
   <path d="m128-.001h11v11h-11z" fill="#fdb913" data-name="Rectangle 1104"/>
  </g>
 </g>
 <path d="m174 33 4 8h8v-9l-14-31v-1h-12v1l-15 31v9h9l4-8zm-8-22 5 13h-10z" fill="#fdb913" data-name="Path 513"/>
 <path d="m79 33 4 8h9v-9l-15-31v-1h-12v1l-14 31v9h8l4-8zm-8-22 5 13h-10z" fill="#fdb913" data-name="Path 514"/>
 <g fill="#fdb913" data-name="Group 901">
  <path d="m207 25.999 13 15h7v-8l-7-8 1-1a10.792 10.792 0 0 0 4-3 12.494 12.494 0 0 0 3-8 13.41 13.41 0 0 0 -5-10c-2.619-2.158-5.728-3-10-3h-20v41h10v-15zm-4-9v-8h11c2.034 0 3 1.966 3 4s-.966 4-3 4z" data-name="Path 515"/>
  <path d="m34 40.999h10v-41h-11l-1 1-10 17-10-17-1-1h-11v41h10v-21l8 13h8l8-13z" data-name="Path 516"/>
 </g>
</svg>
