<svg xmlns="http://www.w3.org/2000/svg" width="34.561" height="34.561" viewBox="0 0 34.561 34.561"><path d="M324.144,359.44v4.752a1.728,1.728,0,0,1-3.456,0V359.44a5.616,5.616,0,0,1,11.232,0v4.752a1.728,1.728,0,0,1-3.456,0V359.44a2.16,2.16,0,0,0-4.32,0Zm-7.776-7.344a1.728,1.728,0,1,1,1.728-1.728A1.729,1.729,0,0,1,316.368,352.1Zm-1.728,3.461a1.728,1.728,0,1,1,3.456,0v8.63a1.728,1.728,0,1,1-3.456,0Zm-3.465-12.1a1.718,1.718,0,0,0-1.719,1.719v24.21a1.718,1.718,0,0,0,1.719,1.719h24.21a1.718,1.718,0,0,0,1.719-1.719v-24.21a1.718,1.718,0,0,0-1.719-1.719ZM306,369.385v-24.21A5.176,5.176,0,0,1,311.175,340h24.21a5.175,5.175,0,0,1,5.175,5.175v24.21a5.176,5.176,0,0,1-5.175,5.175h-24.21A5.176,5.176,0,0,1,306,369.385Z" transform="translate(-306 -340)" fill="#0a66c2"/></svg>